<svg width="32" height="32" viewBox="0 0 32 32" fill="none" xmlns="http://www.w3.org/2000/svg">
<path d="M23.2 3.2C22.7582 3.2 22.4 3.55817 22.4 4C22.4 4.44182 22.7582 4.8 23.2 4.8H26.0686L18.4 12.4686L14.1657 8.23432C13.8533 7.92188 13.3467 7.92188 13.0343 8.23432L5.03431 16.2342C4.72188 16.5467 4.72188 17.0533 5.03431 17.3658C5.34673 17.6781 5.85326 17.6781 6.16567 17.3658L13.6 9.93137L17.8342 14.1657C18.1467 14.4781 18.6533 14.4781 18.9658 14.1657L27.2 5.93137V8.8C27.2 9.24182 27.5582 9.6 28 9.6C28.4418 9.6 28.8 9.24182 28.8 8.8V4C28.8 3.55817 28.4418 3.2 28 3.2H23.2ZM24.8 14.4C24.3582 14.4 24 14.7582 24 15.2V28C24 28.4418 24.3582 28.8 24.8 28.8C25.2418 28.8 25.6 28.4418 25.6 28V15.2C25.6 14.7582 25.2418 14.4 24.8 14.4ZM12 17.6C11.5582 17.6 11.2 17.9582 11.2 18.4V28C11.2 28.4418 11.5582 28.8 12 28.8C12.4418 28.8 12.8 28.4418 12.8 28V18.4C12.8 17.9582 12.4418 17.6 12 17.6ZM17.6 21.6C17.6 21.1582 17.9582 20.8 18.4 20.8C18.8418 20.8 19.2 21.1582 19.2 21.6V28C19.2 28.4418 18.8418 28.8 18.4 28.8C17.9582 28.8 17.6 28.4418 17.6 28V21.6ZM4.79999 23.2C4.79999 22.7582 5.15817 22.4 5.59999 22.4C6.04182 22.4 6.39999 22.7582 6.39999 23.2V28C6.39999 28.4418 6.04182 28.8 5.59999 28.8C5.15817 28.8 4.79999 28.4418 4.79999 28V23.2Z" fill="#EEEEEE"/>
</svg>
