<svg width="32" height="33" viewBox="0 0 32 33" fill="none" xmlns="http://www.w3.org/2000/svg">
<path d="M16.0165 3.80542C16.9952 3.8167 17.97 3.92977 18.9252 4.14281C19.3423 4.23581 19.6541 4.58343 19.7015 5.00803L19.9284 7.04383C20.0311 7.97857 20.8203 8.68654 21.7612 8.68753C22.014 8.68793 22.2643 8.63526 22.4979 8.53186L24.3655 7.7115C24.7539 7.54087 25.2076 7.6339 25.4976 7.94358C26.8472 9.38494 27.8523 11.1136 28.4372 12.9995C28.5633 13.4062 28.4183 13.8481 28.0755 14.1008L26.4201 15.3209C25.948 15.6678 25.6691 16.2188 25.6691 16.8048C25.6691 17.3906 25.948 17.9416 26.4212 18.2893L28.078 19.5098C28.4208 19.7624 28.5661 20.2044 28.4399 20.6112C27.8552 22.4968 26.8507 24.2253 25.5019 25.6669C25.2121 25.9765 24.7587 26.0698 24.3703 25.8996L22.4952 25.0781C21.9588 24.8433 21.3427 24.8777 20.8357 25.1708C20.3288 25.4637 19.9913 25.9804 19.9269 26.5624L19.7015 28.598C19.6551 29.0177 19.3499 29.363 18.9391 29.4608C17.0077 29.9202 14.9956 29.9202 13.0644 29.4608C12.6535 29.363 12.3484 29.0177 12.3019 28.598L12.0768 26.5654C12.0107 25.9845 11.6728 25.4694 11.1662 25.1774C10.6597 24.8854 10.0446 24.8512 9.50992 25.0846L7.63443 25.9062C7.24595 26.0765 6.79237 25.9832 6.50271 25.6733C5.15316 24.2301 4.14859 22.4994 3.56459 20.6118C3.43881 20.2053 3.58415 19.7636 3.92679 19.5112L5.58456 18.2898C6.05675 17.9429 6.33563 17.392 6.33563 16.8061C6.33563 16.2201 6.05675 15.6692 5.58395 15.3218L3.92722 14.1026C3.58406 13.85 3.43859 13.4078 3.56481 13.0009C4.14981 11.115 5.15492 9.38627 6.50449 7.94491C6.79445 7.63523 7.24824 7.54221 7.63665 7.71283L9.50382 8.53305C10.0411 8.76883 10.6587 8.73322 11.168 8.43567C11.6751 8.14154 12.0127 7.62438 12.0779 7.04227L12.3047 5.00803C12.352 4.58322 12.6641 4.23547 13.0814 4.14267C14.0377 3.92998 15.0136 3.81695 16.0165 3.80542ZM15.9999 12.8054C13.7908 12.8054 11.9999 14.5962 11.9999 16.8054C11.9999 19.0145 13.7908 20.8054 15.9999 20.8054C18.2091 20.8054 19.9999 19.0145 19.9999 16.8054C19.9999 14.5962 18.2091 12.8054 15.9999 12.8054Z" fill="#EEEEEE"/>
</svg>
