<svg width="32" height="33" viewBox="0 0 32 33" fill="none" xmlns="http://www.w3.org/2000/svg">
<path d="M16.0165 3.80536C16.9952 3.81664 17.97 3.92971 18.9252 4.14275C19.3423 4.23575 19.6541 4.58337 19.7015 5.00797L19.9284 7.04377C20.0311 7.97851 20.8203 8.68648 21.7612 8.68747C22.014 8.68787 22.2643 8.6352 22.4979 8.5318L24.3655 7.71144C24.7539 7.54081 25.2076 7.63384 25.4976 7.94352C26.8472 9.38488 27.8523 11.1136 28.4372 12.9995C28.5633 13.4061 28.4183 13.8481 28.0755 14.1007L26.4201 15.3208C25.948 15.6678 25.6691 16.2187 25.6691 16.8047C25.6691 17.3906 25.948 17.9415 26.4212 18.2892L28.078 19.5098C28.4208 19.7623 28.5661 20.2043 28.4399 20.6111C27.8552 22.4967 26.8507 24.2252 25.5019 25.6668C25.2121 25.9764 24.7587 26.0698 24.3703 25.8995L22.4952 25.078C21.9588 24.8432 21.3427 24.8776 20.8357 25.1707C20.3288 25.4636 19.9913 25.9803 19.9269 26.5623L19.7015 28.5979C19.6551 29.0176 19.3499 29.363 18.9391 29.4607C17.0077 29.9202 14.9956 29.9202 13.0644 29.4607C12.6535 29.363 12.3484 29.0176 12.3019 28.5979L12.0768 26.5654C12.0107 25.9844 11.6728 25.4694 11.1662 25.1774C10.6597 24.8854 10.0446 24.8511 9.50992 25.0846L7.63443 25.9062C7.24595 26.0764 6.79237 25.9831 6.50271 25.6732C5.15316 24.23 4.14859 22.4994 3.56459 20.6118C3.43881 20.2052 3.58415 19.7635 3.92679 19.5111L5.58456 18.2898C6.05675 17.9428 6.33563 17.3919 6.33563 16.806C6.33563 16.22 6.05675 15.6691 5.58395 15.3218L3.92721 14.1025C3.58405 13.85 3.43859 13.4077 3.56481 13.0008C4.14981 11.1149 5.15492 9.38621 6.50449 7.94485C6.79445 7.63517 7.24824 7.54215 7.63665 7.71277L9.50381 8.53299C10.0411 8.76877 10.6587 8.73316 11.168 8.43561C11.6751 8.14148 12.0127 7.62432 12.0779 7.04221L12.3047 5.00797C12.352 4.58316 12.6641 4.23541 13.0814 4.14261C14.0377 3.92992 15.0136 3.81689 16.0165 3.80536ZM15.9999 12.8053C13.7908 12.8053 11.9999 14.5962 11.9999 16.8054C11.9999 19.0144 13.7908 20.8054 15.9999 20.8054C18.2091 20.8054 19.9999 19.0144 19.9999 16.8054C19.9999 14.5962 18.2091 12.8053 15.9999 12.8053Z" fill="#4087F3"/>
</svg>
