<svg width="32" height="33" viewBox="0 0 32 33" fill="none" xmlns="http://www.w3.org/2000/svg">
<path d="M5.33333 8.80536C5.33333 7.88462 5.75373 7.08088 6.36564 6.43236C6.97253 5.78914 7.80401 5.25529 8.75557 4.82872C10.661 3.97456 13.2232 3.47202 16 3.47202C18.7768 3.47202 21.3389 3.97456 23.2444 4.82872C24.196 5.25529 25.0275 5.78914 25.6344 6.43236C26.2463 7.08088 26.6667 7.88462 26.6667 8.80536V17.1483C26.0716 16.6568 25.3976 16.2574 24.6667 15.9719V11.9952C24.2388 12.2891 23.7592 12.5513 23.2444 12.782C21.3389 13.6362 18.7768 14.1387 16 14.1387C13.2232 14.1387 10.661 13.6362 8.75557 12.782C8.24084 12.5513 7.76125 12.2891 7.33333 11.9952V24.8054C7.33333 25.0812 7.45392 25.4175 7.82033 25.8058C8.19176 26.1995 8.77593 26.5994 9.57369 26.957C11.1669 27.6712 13.4381 28.1387 16 28.1387C16.3195 28.1387 16.6345 28.1314 16.9441 28.1174C17.7479 28.8826 18.7251 29.4672 19.8107 29.8063C18.6231 30.0223 17.3364 30.1387 16 30.1387C13.2232 30.1387 10.661 29.6362 8.75557 28.782C7.80401 28.3555 6.97253 27.8216 6.36564 27.1784C5.75373 26.5299 5.33333 25.7262 5.33333 24.8054V8.80536ZM7.33333 8.80536C7.33333 9.08124 7.45392 9.41748 7.82033 9.80581C8.19176 10.1995 8.77593 10.5994 9.57369 10.957C11.1669 11.6712 13.4381 12.1387 16 12.1387C18.5619 12.1387 20.8331 11.6712 22.4263 10.957C23.224 10.5994 23.8083 10.1995 24.1797 9.80581C24.5461 9.41748 24.6667 9.08124 24.6667 8.80536C24.6667 8.52948 24.5461 8.19324 24.1797 7.8049C23.8083 7.41124 23.224 7.01134 22.4263 6.65373C20.8331 5.93953 18.5619 5.47202 16 5.47202C13.4381 5.47202 11.1669 5.93953 9.57369 6.65373C8.77593 7.01134 8.19176 7.41124 7.82033 7.8049C7.45392 8.19324 7.33333 8.52948 7.33333 8.80536ZM22 28.8054C23.2959 28.8054 24.4957 28.3946 25.4765 27.6962L28.9596 31.1791C29.3501 31.5696 29.9832 31.5696 30.3737 31.1791C30.7643 30.7886 30.7643 30.1555 30.3737 29.765L26.8908 26.2819C27.5892 25.3011 28 24.1012 28 22.8054C28 19.4916 25.3137 16.8054 22 16.8054C18.6863 16.8054 16 19.4916 16 22.8054C16 26.1191 18.6863 28.8054 22 28.8054ZM22 26.8054C19.7908 26.8054 18 25.0146 18 22.8054C18 20.5962 19.7908 18.8054 22 18.8054C24.2092 18.8054 26 20.5962 26 22.8054C26 25.0146 24.2092 26.8054 22 26.8054Z" fill="white"/>
</svg>
