<svg width="243" height="95" viewBox="0 0 243 95" fill="none" xmlns="http://www.w3.org/2000/svg">
<rect x="51.4004" y="30.0571" width="14.6036" height="64.0997" rx="7.30178" fill="url(#paint0_linear_91:1691)"/>
<rect x="26.1958" y="33.8083" width="14.6036" height="60.3487" rx="7.30178" fill="url(#paint1_linear_91:1691)"/>
<rect x="0.990723" y="33.8083" width="14.6036" height="60.3487" rx="7.30178" fill="url(#paint2_linear_91:1691)"/>
<rect x="76.605" y="13.9421" width="14.6036" height="80.2145" rx="7.30178" fill="url(#paint3_linear_91:1691)"/>
<rect x="101.809" y="43.1135" width="14.6036" height="51.0456" rx="7.30178" fill="url(#paint4_linear_91:1691)"/>
<rect x="127.015" y="37.1455" width="14.6036" height="57.012" rx="7.30178" fill="url(#paint5_linear_91:1691)"/>
<rect x="152.219" y="55.178" width="14.6036" height="38.9803" rx="7.30178" fill="url(#paint6_linear_91:1691)"/>
<rect x="177.424" width="14.6036" height="93.0312" rx="7.30178" fill="url(#paint7_linear_91:1691)"/>
<rect x="202.628" y="9.28052" width="14.6036" height="83.7502" rx="7.30178" fill="url(#paint8_linear_91:1691)"/>
<rect x="227.833" y="9.28052" width="14.6036" height="83.7502" rx="7.30178" fill="url(#paint9_linear_91:1691)"/>
<defs>
<linearGradient id="paint0_linear_91:1691" x1="58.7022" y1="30.0571" x2="58.7022" y2="94.1569" gradientUnits="userSpaceOnUse">
<stop stop-color="#4087F3"/>
<stop offset="1" stop-color="white" stop-opacity="0"/>
</linearGradient>
<linearGradient id="paint1_linear_91:1691" x1="33.4976" y1="33.8083" x2="33.4976" y2="94.1571" gradientUnits="userSpaceOnUse">
<stop stop-color="#4087F3"/>
<stop offset="1" stop-color="white" stop-opacity="0"/>
</linearGradient>
<linearGradient id="paint2_linear_91:1691" x1="8.2925" y1="33.8083" x2="8.2925" y2="94.1571" gradientUnits="userSpaceOnUse">
<stop stop-color="#4087F3"/>
<stop offset="1" stop-color="white" stop-opacity="0"/>
</linearGradient>
<linearGradient id="paint3_linear_91:1691" x1="83.9068" y1="13.9421" x2="83.9068" y2="94.1567" gradientUnits="userSpaceOnUse">
<stop stop-color="#4087F3"/>
<stop offset="1" stop-color="white" stop-opacity="0"/>
</linearGradient>
<linearGradient id="paint4_linear_91:1691" x1="109.111" y1="43.1135" x2="109.111" y2="94.1592" gradientUnits="userSpaceOnUse">
<stop stop-color="#4087F3"/>
<stop offset="1" stop-color="white" stop-opacity="0"/>
</linearGradient>
<linearGradient id="paint5_linear_91:1691" x1="134.317" y1="37.1455" x2="134.317" y2="94.1575" gradientUnits="userSpaceOnUse">
<stop stop-color="#4087F3"/>
<stop offset="1" stop-color="white" stop-opacity="0"/>
</linearGradient>
<linearGradient id="paint6_linear_91:1691" x1="159.521" y1="55.178" x2="159.521" y2="94.1583" gradientUnits="userSpaceOnUse">
<stop stop-color="#4087F3"/>
<stop offset="1" stop-color="white" stop-opacity="0"/>
</linearGradient>
<linearGradient id="paint7_linear_91:1691" x1="184.726" y1="0" x2="184.726" y2="93.0312" gradientUnits="userSpaceOnUse">
<stop stop-color="#4087F3"/>
<stop offset="1" stop-color="white" stop-opacity="0"/>
</linearGradient>
<linearGradient id="paint8_linear_91:1691" x1="209.93" y1="9.28052" x2="209.93" y2="93.0307" gradientUnits="userSpaceOnUse">
<stop stop-color="#4087F3"/>
<stop offset="1" stop-color="white" stop-opacity="0"/>
</linearGradient>
<linearGradient id="paint9_linear_91:1691" x1="235.135" y1="9.28052" x2="235.135" y2="93.0307" gradientUnits="userSpaceOnUse">
<stop stop-color="#4087F3"/>
<stop offset="1" stop-color="white" stop-opacity="0"/>
</linearGradient>
</defs>
</svg>
